<svg width="12" height="12" viewBox="0 0 12 12" fill="none" xmlns="http://www.w3.org/2000/svg">
<path d="M3.72642 1.35633C3.9138 0.88122 4.5862 0.881225 4.77358 1.35634L5.35425 2.82866C5.41145 2.97372 5.5263 3.08854 5.67135 3.14574L7.14365 3.72642C7.6188 3.9138 7.6188 4.5862 7.14365 4.77358L5.67135 5.35425C5.5263 5.41145 5.41145 5.5263 5.35425 5.67135L4.77358 7.14365C4.5862 7.6188 3.9138 7.6188 3.72642 7.14365L3.14574 5.67135C3.08854 5.5263 2.97372 5.41145 2.82866 5.35425L1.35633 4.77358C0.88122 4.5862 0.881225 3.9138 1.35634 3.72642L2.82866 3.14574C2.97372 3.08854 3.08854 2.97372 3.14574 2.82866L3.72642 1.35633Z" fill="white"/>
<path d="M8.46225 6.69579C8.56525 6.43474 8.93475 6.43474 9.03775 6.69579L9.48805 7.83764C9.5195 7.91739 9.5826 7.98049 9.66235 8.01194L10.8042 8.46224C11.0653 8.56524 11.0653 8.93474 10.8042 9.03774L9.66235 9.48804C9.5826 9.51949 9.5195 9.58259 9.48805 9.66234L9.03775 10.8042C8.93475 11.0652 8.56525 11.0652 8.46225 10.8042L8.01195 9.66234C7.9805 9.58259 7.9174 9.51949 7.83765 9.48804L6.6958 9.03774C6.43475 8.93474 6.43475 8.56524 6.6958 8.46224L7.83765 8.01194C7.9174 7.98049 7.9805 7.91739 8.01195 7.83764L8.46225 6.69579Z" fill="white"/>
</svg>
