<svg width="22" height="20" viewBox="0 0 22 20" fill="none" xmlns="http://www.w3.org/2000/svg">
<path d="M4.19871 20.1749L4.19734 20.174C3.03839 19.4013 2.45999 18.4018 2.45999 17.38C2.45999 16.3579 3.03873 15.3486 4.20697 14.5663C5.51354 13.7018 7.25177 13.255 9.01249 13.255C10.7738 13.255 12.5067 13.7021 13.8026 14.566C14.958 15.3363 15.5309 16.3356 15.54 17.3621C15.5392 18.3936 14.9602 19.3931 13.8004 20.1754C12.4996 21.0485 10.7626 21.5 8.99999 21.5C7.23705 21.5 5.4996 21.0483 4.19871 20.1749ZM14.8794 10.3316C15.7503 9.33389 16.2231 7.99401 16.1084 6.56013L16.1084 6.56013L16.1081 6.55695C16.0494 5.87773 15.8577 5.24381 15.5676 4.67465C15.7552 4.62218 15.9525 4.586 16.1537 4.56808C17.8385 4.42225 19.345 5.67835 19.4917 7.38188C19.6287 9.04727 18.4535 10.4991 16.8289 10.71H16.81C16.8075 10.71 16.8043 10.71 16.8005 10.7099C16.7635 10.7095 16.6676 10.7084 16.5602 10.733C15.9391 10.7553 15.3639 10.6083 14.8794 10.3316ZM21.4922 16.5433L21.4921 16.5433L21.4917 16.5489C21.4288 17.3111 20.9419 18.0206 20.0097 18.5315L20.009 18.5319C19.3887 18.8731 18.6467 19.0965 17.8628 19.1948C18.1968 18.6687 18.4011 18.0866 18.4578 17.4763L18.4579 17.4763L18.4584 17.4702C18.5747 16.0274 17.8798 14.688 16.6035 13.6605L16.6002 13.6579C16.3019 13.4219 15.9843 13.2072 15.6508 13.0134C17.366 12.91 19.1765 13.3811 20.376 14.3491L20.3766 14.3496C21.2041 15.0152 21.5624 15.7941 21.4922 16.5433ZM4.74999 6.75C4.74999 4.40614 6.65613 2.5 8.99999 2.5C11.3435 2.5 13.2495 4.40562 13.25 6.74903C13.2405 9.04858 11.4468 10.9052 9.16098 10.99H9.16096H9.16093H9.1609H9.16087H9.16084H9.16081H9.16079H9.16076H9.16073H9.1607H9.16067H9.16064H9.16061H9.16058H9.16055H9.16052H9.16049H9.16046H9.16043H9.1604H9.16037H9.16034H9.16031H9.16028H9.16025H9.16023H9.1602H9.16017H9.16014H9.16011H9.16008H9.16005H9.16002H9.15999H9.15996H9.15993H9.1599H9.15987H9.15984H9.15982H9.15979H9.15976H9.15973H9.1597H9.15967H9.15964H9.15961H9.15958H9.15955H9.15952H9.15949H9.15946H9.15943H9.1594H9.15937H9.15935H9.15932H9.15929H9.15926H9.15923H9.1592H9.15917H9.15914H9.15911H9.15908H9.15905H9.15902H9.15899H9.15896H9.15893H9.1589H9.15887H9.15884H9.15881H9.15878H9.15875H9.15872H9.15869H9.15866H9.15863H9.1586H9.15857H9.15854H9.15851H9.15848H9.15845H9.15842H9.15839H9.15836H9.15832H9.15829H9.15826H9.15823H9.1582H9.15817H9.15814H9.15811H9.15808H9.15805H9.15801H9.15798H9.15795H9.15792H9.15789H9.15786H9.15783H9.15779H9.15776H9.15773H9.1577H9.15767H9.15764H9.1576H9.15757H9.15754H9.15751H9.15747H9.15744H9.15741H9.15738H9.15734H9.15731H9.15728H9.15725H9.15721H9.15718H9.15715H9.15711H9.15708H9.15705H9.15701H9.15698H9.15695H9.15691H9.15688H9.15684H9.15681H9.15678H9.15674H9.15671H9.15667H9.15664H9.1566H9.15657H9.15654H9.1565H9.15647H9.15643H9.1564H9.15636H9.15632H9.15629H9.15625H9.15622H9.15618H9.15615H9.15611H9.15607H9.15604H9.156H9.15597H9.15593H9.15589H9.15586H9.15582H9.15578H9.15574H9.15571H9.15567H9.15563H9.15559H9.15556H9.15552H9.15548H9.15544H9.1554H9.15537H9.15533H9.15529H9.15525H9.15521H9.15517H9.15513H9.15509H9.15505H9.15501H9.15497H9.15494H9.1549H9.15486H9.15481H9.15477H9.15473H9.15469H9.15465H9.15461H9.15457H9.15453H9.15449H9.15445H9.1544H9.15436H9.15432H9.15428H9.15424H9.15419H9.15415H9.15411H9.15407H9.15402H9.15398H9.15394H9.15389H9.15385H9.1538H9.15376H9.15372H9.15367H9.15363H9.15358H9.15354H9.15349H9.15345H9.1534H9.15336H9.15331H9.15327H9.15322H9.15317H9.15313H9.15308H9.15303H9.15299H9.15294H9.15289H9.15284H9.1528H9.15275H9.1527H9.15265H9.15261H9.15256H9.15251H9.15246H9.15241H9.15236H9.15231H9.15226H9.15221H9.15216H9.15211H9.15206H9.15201H9.15196H9.15191H9.15186H9.15181H9.15175H9.1517H9.15165H9.1516H9.15155H9.15149H9.15144H9.15139H9.15133H9.15128H9.15123H9.15117H9.15112H9.15106H9.15101H9.15095H9.1509H9.15084H9.15079H9.15073H9.15068H9.15062H9.15057H9.15051H9.15045H9.1504H9.15034H9.15028H9.15022H9.15017H9.15011H9.15005H9.14999H9.14987H9.14976H9.14964H9.14952H9.14941H9.14929H9.14918H9.14906H9.14895H9.14883H9.14872H9.1486H9.14849H9.14837H9.14826H9.14814H9.14803H9.14792H9.1478H9.14769H9.14758H9.14747H9.14735H9.14724H9.14713H9.14702H9.14691H9.1468H9.14669H9.14657H9.14646H9.14635H9.14624H9.14613H9.14602H9.14591H9.1458H9.1457H9.14559H9.14548H9.14537H9.14526H9.14515H9.14504H9.14494H9.14483H9.14472H9.14461H9.14451H9.1444H9.14429H9.14419H9.14408H9.14397H9.14387H9.14376H9.14366H9.14355H9.14344H9.14334H9.14323H9.14313H9.14303H9.14292H9.14282H9.14271H9.14261H9.1425H9.1424H9.1423H9.14219H9.14209H9.14199H9.14189H9.14178H9.14168H9.14158H9.14148H9.14137H9.14127H9.14117H9.14107H9.14097H9.14087H9.14077H9.14066H9.14056H9.14046H9.14036H9.14026H9.14016H9.14006H9.13996H9.13986H9.13976H9.13966H9.13956H9.13947H9.13937H9.13927H9.13917H9.13907H9.13897H9.13887H9.13878H9.13868H9.13858H9.13848H9.13838H9.13829H9.13819H9.13809H9.138H9.1379H9.1378H9.1377H9.13761H9.13751H9.13742H9.13732H9.13722H9.13713H9.13703H9.13694H9.13684H9.13674H9.13665H9.13655H9.13646H9.13636H9.13627H9.13617H9.13608H9.13598H9.13589H9.1358H9.1357H9.13561H9.13551H9.13542H9.13533H9.13523H9.13514H9.13504H9.13495H9.13486H9.13476H9.13467H9.13458H9.13449H9.13439H9.1343H9.13421H9.13411H9.13402H9.13393H9.13384H9.13375C9.04327 10.9796 8.94917 10.9808 8.86252 10.989C6.52537 10.8911 4.74999 9.03575 4.74999 6.75Z" fill="#43444C" stroke="#43444C"/>
</svg>
