<svg width="16" height="16" viewBox="0 0 16 16" fill="none" xmlns="http://www.w3.org/2000/svg">
<g clip-path="url(#clip0_202_119497)">
<mask id="path-1-inside-1_202_119497" fill="white">
<path fill-rule="evenodd" clip-rule="evenodd" d="M3.71737 3.56167C2.55499 4.6832 1.83203 6.25712 1.83203 7.99992C1.83203 11.4057 4.59294 14.1666 7.9987 14.1666C8.0837 14.1666 8.1683 14.1649 8.2525 14.1615C8.1155 13.5537 8.09696 12.7367 8.5147 11.9495C8.94943 11.1303 9.8495 10.7747 10.5113 10.6121C10.858 10.5269 11.1792 10.4848 11.4128 10.4639C11.5302 10.4533 11.6269 10.448 11.6955 10.4453C11.7298 10.4439 11.7572 10.4432 11.7767 10.4429L11.8 10.4425L11.8056 10.4425C12.9206 10.4309 13.423 10.0683 13.6896 9.72232C13.9173 9.42685 14.0033 9.13132 14.0905 8.83158C14.1016 8.79345 14.1127 8.75525 14.1241 8.71698C14.1514 8.48172 14.1654 8.24245 14.1654 7.99992C14.1654 6.3172 13.4914 4.7919 12.3986 3.67924C12.3928 3.70195 12.3869 3.72432 12.3808 3.74632C12.2723 4.14162 12.097 4.54734 11.9066 4.83642C11.736 5.09534 11.405 5.35653 11.1304 5.55388C10.9496 5.68377 10.7614 5.79412 10.5906 5.8925C10.57 5.9044 10.5497 5.9161 10.5296 5.92765C10.3776 6.0151 10.2408 6.09376 10.1091 6.18074C9.82123 6.37095 9.5985 6.57567 9.44856 6.88478C9.3961 6.99305 9.39443 7.09865 9.4255 7.21172C9.47523 7.39272 9.5091 7.59632 9.50963 7.80392C9.51076 8.23659 9.29036 8.58772 9.0071 8.81598C8.72723 9.04158 8.36143 9.17058 7.99323 9.16658C6.35638 9.14865 5.34998 7.82032 5.21724 6.3429C5.16444 5.7552 4.90678 5.16073 4.58144 4.64115C4.28265 4.16399 3.94599 3.78055 3.71737 3.56167ZM4.4954 2.92433C4.7721 3.203 5.11926 3.61579 5.42899 4.11045C5.80067 4.70403 6.14119 5.45164 6.21323 6.25342C6.31387 7.37358 7.02196 8.15592 8.00416 8.16658C8.13923 8.16812 8.2795 8.11805 8.37963 8.03738C8.47636 7.95945 8.50983 7.87712 8.50963 7.80652C8.50936 7.70285 8.4919 7.58825 8.46116 7.47645C8.38043 7.18232 8.3689 6.81939 8.54883 6.44839C8.8055 5.91919 9.1859 5.59217 9.5579 5.34639C9.7173 5.24106 9.8827 5.14604 10.0319 5.06029C10.052 5.04873 10.0718 5.03734 10.0913 5.02612C10.2614 4.92804 10.4108 4.83951 10.5468 4.74177C10.8342 4.53529 11.016 4.37046 11.0715 4.28623C11.1932 4.10162 11.33 3.79681 11.4165 3.48159C11.4851 3.23183 11.5041 3.04016 11.4977 2.92136C10.5036 2.23513 9.29803 1.83325 7.9987 1.83325C6.69743 1.83325 5.49035 2.23629 4.4954 2.92433ZM15.1182 8.82679C15.1494 8.55545 15.1654 8.27958 15.1654 7.99992C15.1654 4.04188 11.9568 0.833252 7.9987 0.833252C4.04066 0.833252 0.832031 4.04188 0.832031 7.99992C0.832031 11.958 4.04066 15.1666 7.9987 15.1666C11.639 15.1666 14.6453 12.4525 15.1046 8.93752C15.1168 8.89518 15.1273 8.85992 15.1368 8.83332L15.1182 8.82679ZM13.2685 11.2043C12.8714 11.3499 12.3928 11.4364 11.8161 11.4425H11.8108H11.8091L11.7954 11.4427C11.7824 11.4429 11.762 11.4434 11.735 11.4445C11.6809 11.4467 11.601 11.451 11.5022 11.4599C11.3034 11.4777 11.0345 11.5133 10.75 11.5832C10.1492 11.7309 9.62203 11.9961 9.39803 12.4182C9.09436 12.9904 9.1377 13.613 9.25096 14.0394C10.9503 13.6889 12.3941 12.6392 13.2685 11.2043Z"/>
</mask>
<path fill-rule="evenodd" clip-rule="evenodd" d="M3.71737 3.56167C2.55499 4.6832 1.83203 6.25712 1.83203 7.99992C1.83203 11.4057 4.59294 14.1666 7.9987 14.1666C8.0837 14.1666 8.1683 14.1649 8.2525 14.1615C8.1155 13.5537 8.09696 12.7367 8.5147 11.9495C8.94943 11.1303 9.8495 10.7747 10.5113 10.6121C10.858 10.5269 11.1792 10.4848 11.4128 10.4639C11.5302 10.4533 11.6269 10.448 11.6955 10.4453C11.7298 10.4439 11.7572 10.4432 11.7767 10.4429L11.8 10.4425L11.8056 10.4425C12.9206 10.4309 13.423 10.0683 13.6896 9.72232C13.9173 9.42685 14.0033 9.13132 14.0905 8.83158C14.1016 8.79345 14.1127 8.75525 14.1241 8.71698C14.1514 8.48172 14.1654 8.24245 14.1654 7.99992C14.1654 6.3172 13.4914 4.7919 12.3986 3.67924C12.3928 3.70195 12.3869 3.72432 12.3808 3.74632C12.2723 4.14162 12.097 4.54734 11.9066 4.83642C11.736 5.09534 11.405 5.35653 11.1304 5.55388C10.9496 5.68377 10.7614 5.79412 10.5906 5.8925C10.57 5.9044 10.5497 5.9161 10.5296 5.92765C10.3776 6.0151 10.2408 6.09376 10.1091 6.18074C9.82123 6.37095 9.5985 6.57567 9.44856 6.88478C9.3961 6.99305 9.39443 7.09865 9.4255 7.21172C9.47523 7.39272 9.5091 7.59632 9.50963 7.80392C9.51076 8.23659 9.29036 8.58772 9.0071 8.81598C8.72723 9.04158 8.36143 9.17058 7.99323 9.16658C6.35638 9.14865 5.34998 7.82032 5.21724 6.3429C5.16444 5.7552 4.90678 5.16073 4.58144 4.64115C4.28265 4.16399 3.94599 3.78055 3.71737 3.56167ZM4.4954 2.92433C4.7721 3.203 5.11926 3.61579 5.42899 4.11045C5.80067 4.70403 6.14119 5.45164 6.21323 6.25342C6.31387 7.37358 7.02196 8.15592 8.00416 8.16658C8.13923 8.16812 8.2795 8.11805 8.37963 8.03738C8.47636 7.95945 8.50983 7.87712 8.50963 7.80652C8.50936 7.70285 8.4919 7.58825 8.46116 7.47645C8.38043 7.18232 8.3689 6.81939 8.54883 6.44839C8.8055 5.91919 9.1859 5.59217 9.5579 5.34639C9.7173 5.24106 9.8827 5.14604 10.0319 5.06029C10.052 5.04873 10.0718 5.03734 10.0913 5.02612C10.2614 4.92804 10.4108 4.83951 10.5468 4.74177C10.8342 4.53529 11.016 4.37046 11.0715 4.28623C11.1932 4.10162 11.33 3.79681 11.4165 3.48159C11.4851 3.23183 11.5041 3.04016 11.4977 2.92136C10.5036 2.23513 9.29803 1.83325 7.9987 1.83325C6.69743 1.83325 5.49035 2.23629 4.4954 2.92433ZM15.1182 8.82679C15.1494 8.55545 15.1654 8.27958 15.1654 7.99992C15.1654 4.04188 11.9568 0.833252 7.9987 0.833252C4.04066 0.833252 0.832031 4.04188 0.832031 7.99992C0.832031 11.958 4.04066 15.1666 7.9987 15.1666C11.639 15.1666 14.6453 12.4525 15.1046 8.93752C15.1168 8.89518 15.1273 8.85992 15.1368 8.83332L15.1182 8.82679ZM13.2685 11.2043C12.8714 11.3499 12.3928 11.4364 11.8161 11.4425H11.8108H11.8091L11.7954 11.4427C11.7824 11.4429 11.762 11.4434 11.735 11.4445C11.6809 11.4467 11.601 11.451 11.5022 11.4599C11.3034 11.4777 11.0345 11.5133 10.75 11.5832C10.1492 11.7309 9.62203 11.9961 9.39803 12.4182C9.09436 12.9904 9.1377 13.613 9.25096 14.0394C10.9503 13.6889 12.3941 12.6392 13.2685 11.2043Z" fill="#686796"/>
<path d="M3.71737 3.56167L26.7695 -20.5155L3.62805 -42.6717L-19.4276 -20.4263L3.71737 3.56167ZM8.2525 14.1615L9.5974 47.4676L49.5666 45.8537L40.7698 6.83114L8.2525 14.1615ZM8.5147 11.9495L-20.9294 -3.67597L-20.9297 -3.67544L8.5147 11.9495ZM10.5113 10.6121L2.55718 -21.7584L2.55497 -21.7578L10.5113 10.6121ZM11.4128 10.4639L14.3887 43.6641L14.3915 43.6638L11.4128 10.4639ZM11.6955 10.4453L10.3995 -22.8629L10.3839 -22.8623L10.3684 -22.8617L11.6955 10.4453ZM11.7767 10.4429L11.2995 -22.8871L11.2537 -22.8864L11.208 -22.8856L11.7767 10.4429ZM11.8 10.4425L11.4073 -22.8885L11.365 -22.888L11.3227 -22.8874L11.8 10.4425ZM11.8056 10.4425L11.4589 -22.8891L11.4359 -22.8888L11.4129 -22.8886L11.8056 10.4425ZM13.6896 9.72232L-12.7117 -10.6267L-12.7129 -10.6252L13.6896 9.72232ZM14.0905 8.83158L46.0969 18.143L46.0999 18.1325L46.103 18.1219L14.0905 8.83158ZM14.1241 8.71698L46.07 18.234L46.9008 15.4451L47.2358 12.5545L14.1241 8.71698ZM12.3986 3.67924L36.1809 -19.6771L-5.26053 -61.8742L-19.8978 -4.57028L12.3986 3.67924ZM12.3808 3.74632L-19.7531 -5.11486L-19.7581 -5.0969L-19.763 -5.07893L12.3808 3.74632ZM11.9066 4.83642L39.7411 23.1763L39.7411 23.1762L11.9066 4.83642ZM11.1304 5.55388L30.5793 32.6251L30.5803 32.6243L11.1304 5.55388ZM10.5906 5.8925L-6.0524 -22.9886L-6.06418 -22.9819L-6.07595 -22.9751L10.5906 5.8925ZM10.5296 5.92765L-6.05375 -22.9878L-6.07376 -22.9763L-6.09376 -22.9648L10.5296 5.92765ZM10.1091 6.18074L-8.2631 -21.6325L-8.2672 -21.6297L10.1091 6.18074ZM9.44856 6.88478L-20.5429 -7.6624L-20.5481 -7.65177L9.44856 6.88478ZM9.4255 7.21172L-22.7166 16.0432L-22.7166 16.0434L9.4255 7.21172ZM9.50963 7.80392L-23.8236 7.88955L-23.8236 7.89123L9.50963 7.80392ZM9.0071 8.81598L-11.9083 -17.1389L-11.9124 -17.1356L9.0071 8.81598ZM7.99323 9.16658L7.62805 42.4979L7.63113 42.498L7.99323 9.16658ZM5.21724 6.3429L38.4169 3.36019L38.4168 3.35982L5.21724 6.3429ZM4.58144 4.64115L32.8332 -13.0492L32.8332 -13.0492L4.58144 4.64115ZM4.4954 2.92433L-14.464 -24.492L-47.2139 -1.8442L-19.1581 26.4109L4.4954 2.92433ZM5.42899 4.11045L-22.8228 21.8007L-22.8228 21.8008L5.42899 4.11045ZM6.21323 6.25342L39.4128 3.27064L39.4128 3.27041L6.21323 6.25342ZM8.00416 8.16658L8.38255 -25.1646L8.37435 -25.1647L8.36614 -25.1648L8.00416 8.16658ZM8.37963 8.03738L29.2912 33.9954L29.2921 33.9946L8.37963 8.03738ZM8.50963 7.80652L-24.8236 7.89226L-24.8236 7.90095L8.50963 7.80652ZM8.46116 7.47645L-23.6833 16.2994L-23.6799 16.3119L8.46116 7.47645ZM8.54883 6.44839L-21.4431 -8.09795L-21.4431 -8.09784L8.54883 6.44839ZM9.5579 5.34639L27.9328 33.1578L27.935 33.1563L9.5579 5.34639ZM10.0319 5.06029L-6.55862 -23.8511L-6.56854 -23.8454L-6.57847 -23.8397L10.0319 5.06029ZM10.0913 5.02612L26.7367 33.9059L26.7393 33.9044L10.0913 5.02612ZM10.5468 4.74177L-8.90219 -22.3294L-8.90727 -22.3257L10.5468 4.74177ZM11.0715 4.28623L-16.7612 -14.0565L-16.7675 -14.0469L11.0715 4.28623ZM11.4165 3.48159L-20.7264 -5.34713L-20.7276 -5.34254L11.4165 3.48159ZM11.4977 2.92136L44.7828 1.12822L43.9024 -15.2139L30.4338 -24.511L11.4977 2.92136ZM15.1182 8.82679L-17.997 5.01895L-21.037 31.4572L4.07163 40.2765L15.1182 8.82679ZM15.1046 8.93752L-16.9252 -0.29311L-17.6219 2.12432L-17.9478 4.61892L15.1046 8.93752ZM15.1368 8.83332L46.5406 20.0096L57.7632 -11.5242L26.1833 -22.6164L15.1368 8.83332ZM13.2685 11.2043L41.7329 28.5504L91.3862 -52.9292L1.79736 -20.093L13.2685 11.2043ZM11.8161 11.4425V44.7758H11.9914L12.1667 44.7739L11.8161 11.4425ZM11.8091 11.4425V-21.8909H11.5653L11.3215 -21.8873L11.8091 11.4425ZM11.7954 11.4427L11.3078 -21.8871L11.2097 -21.8857L11.1117 -21.8837L11.7954 11.4427ZM11.735 11.4445L10.4191 -21.8629L10.3994 -21.8621L10.3797 -21.8613L11.735 11.4445ZM11.5022 11.4599L14.4758 44.6603L14.4816 44.6598L11.5022 11.4599ZM10.75 11.5832L2.794 -20.7868L2.79397 -20.7868L10.75 11.5832ZM9.39803 12.4182L38.8419 28.0441L38.8427 28.0426L9.39803 12.4182ZM9.25096 14.0394L-22.9651 22.5971L-14.8755 53.0512L15.9851 46.6854L9.25096 14.0394ZM-19.4276 -20.4263C-26.8311 -13.2829 -31.5013 -3.15815 -31.5013 7.99992H35.1654C35.1654 15.6724 31.9411 22.6493 26.8624 27.5496L-19.4276 -20.4263ZM-31.5013 7.99992C-31.5013 29.8151 -13.8166 47.4999 7.9987 47.4999V-19.1667C23.0025 -19.1667 35.1654 -7.00377 35.1654 7.99992H-31.5013ZM7.9987 47.4999C8.53699 47.4999 9.07001 47.4889 9.5974 47.4676L6.90759 -19.1447C7.26659 -19.1592 7.6304 -19.1667 7.9987 -19.1667V47.4999ZM40.7698 6.83114C41.7958 11.3822 42.3654 19.2708 37.9591 27.5743L-20.9297 -3.67544C-26.1715 6.2025 -25.5648 15.7253 -24.2648 21.4918L40.7698 6.83114ZM37.9588 27.5749C34.5402 34.0169 29.7033 37.7935 26.2473 39.8133C22.9068 41.7656 19.9827 42.6095 18.4676 42.9819L2.55497 -21.7578C-0.120073 -21.1003 -13.4661 -17.7396 -20.9294 -3.67597L37.9588 27.5749ZM18.4654 42.9825C16.7421 43.4059 15.3198 43.5806 14.3887 43.6641L8.43678 -22.7364C7.03862 -22.611 4.974 -22.3522 2.55718 -21.7584L18.4654 42.9825ZM14.3915 43.6638C13.888 43.709 13.4289 43.736 13.0226 43.7522L10.3684 -22.8617C9.82494 -22.84 9.17229 -22.8024 8.434 -22.7361L14.3915 43.6638ZM12.9915 43.7534C12.8236 43.7599 12.6055 43.7669 12.3454 43.7713L11.208 -22.8856C10.9089 -22.8805 10.636 -22.8721 10.3995 -22.8629L12.9915 43.7534ZM12.2539 43.7728L12.2772 43.7724L11.3227 -22.8874L11.2995 -22.8871L12.2539 43.7728ZM12.1927 43.7735L12.1983 43.7735L11.4129 -22.8886L11.4073 -22.8885L12.1927 43.7735ZM12.1524 43.774C21.6212 43.6755 32.5341 39.8768 40.092 30.0699L-12.7129 -10.6252C-9.85865 -14.3288 -5.85817 -17.8099 -0.707295 -20.147C4.13097 -22.3423 8.50793 -22.8584 11.4589 -22.8891L12.1524 43.774ZM40.0909 30.0713C44.605 24.2145 46.0773 18.2105 46.0969 18.143L-17.9159 -0.479875C-18.0707 0.0521703 -16.7704 -5.36082 -12.7117 -10.6267L40.0909 30.0713ZM46.103 18.1219C46.1054 18.1137 46.1027 18.123 46.0977 18.1402C46.0924 18.1582 46.0828 18.191 46.07 18.234L-17.8218 -0.799989C-17.8682 -0.644266 -17.9061 -0.513563 -17.922 -0.458757L46.103 18.1219ZM47.2358 12.5545C47.4105 11.0469 47.4987 9.52634 47.4987 7.99992H-19.168C-19.168 6.95857 -19.1078 5.91653 -18.9876 4.87944L47.2358 12.5545ZM47.4987 7.99992C47.4987 -2.76761 43.1463 -12.5846 36.1809 -19.6771L-11.3836 27.0355C-16.1636 22.1684 -19.168 15.402 -19.168 7.99992H47.4987ZM-19.8978 -4.57028C-19.8541 -4.74109 -19.806 -4.92295 -19.7531 -5.11486L44.5148 12.6075C44.5798 12.3716 44.6398 12.145 44.695 11.9288L-19.8978 -4.57028ZM-19.763 -5.07893C-19.3912 -6.43304 -18.9333 -7.71909 -18.4007 -8.94553C-17.8919 -10.1174 -17.1084 -11.7118 -15.928 -13.5034L39.7411 23.1762C42.2265 19.4041 43.6837 15.6345 44.5247 12.5716L-19.763 -5.07893ZM-15.9279 -13.5035C-14.7111 -15.3503 -13.5274 -16.7316 -12.6943 -17.6304C-11.8348 -18.5577 -11.0694 -19.27 -10.5191 -19.7565C-9.46326 -20.6898 -8.60385 -21.3124 -8.31962 -21.5166L30.5803 32.6243C31.1392 32.2228 32.3015 31.3709 33.634 30.193C34.7407 29.2147 37.3294 26.8365 39.7411 23.1763L-15.9279 -13.5035ZM-8.31857 -21.5173C-7.60568 -22.0295 -7.0121 -22.4076 -6.64183 -22.636C-6.2872 -22.8547 -6.01855 -23.0081 -6.0524 -22.9886L27.2337 34.7737C27.4325 34.6591 28.9106 33.8239 30.5793 32.6251L-8.31857 -21.5173ZM-6.07595 -22.9751C-6.07378 -22.9763 -6.06595 -22.9808 -6.05375 -22.9878L27.1129 34.8431C27.1653 34.813 27.2138 34.7851 27.2572 34.7601L-6.07595 -22.9751ZM-6.09376 -22.9648C-6.12318 -22.9479 -6.41778 -22.7792 -6.73926 -22.5878C-7.09361 -22.3769 -7.63026 -22.0505 -8.2631 -21.6325L28.4813 33.9939C27.9801 34.325 27.5777 34.5686 27.3627 34.6966C27.1805 34.805 27.0303 34.8907 27.1529 34.8201L-6.09376 -22.9648ZM-8.2672 -21.6297C-11.3627 -19.5844 -16.8369 -15.3031 -20.5429 -7.66239L39.4401 21.432C37.8725 24.6639 35.8524 27.4344 33.6303 29.7206C31.5317 31.8799 29.5778 33.2694 28.4854 33.9912L-8.2672 -21.6297ZM-20.5481 -7.65177C-24.8048 1.13202 -24.4357 9.7867 -22.7166 16.0432L41.5676 -1.61978C42.2948 1.02667 42.9304 4.65154 42.6847 8.94945C42.4314 13.3793 41.2919 17.6107 39.4452 21.4213L-20.5481 -7.65177ZM-22.7166 16.0434C-23.3029 13.9096 -23.8152 11.1448 -23.8236 7.88955L42.8429 7.71828C42.8334 4.04781 42.2533 0.875802 41.5676 -1.61995L-22.7166 16.0434ZM-23.8236 7.89123C-23.8542 -3.80066 -17.7912 -12.3983 -11.9083 -17.1389L29.9225 34.7709C36.3719 29.5737 42.8757 20.2738 42.8428 7.7166L-23.8236 7.89123ZM-11.9124 -17.1356C-6.19764 -21.7423 0.952365 -24.2452 8.35533 -24.1648L7.63113 42.498C15.7705 42.5864 23.6521 39.8254 29.9266 34.7676L-11.9124 -17.1356ZM8.35841 -24.1647C17.244 -24.0674 25.2358 -20.1251 30.6827 -14.1458C35.7055 -8.6322 37.9157 -2.21853 38.4169 3.36019L-27.9824 9.32561C-26.8 22.4864 -16.0161 42.2389 7.62805 42.4979L8.35841 -24.1647ZM38.4168 3.35982C37.7229 -4.36327 34.7035 -10.0624 32.8332 -13.0492L-23.6703 22.3315C-24.4104 21.1496 -25.2848 19.554 -26.0631 17.5537C-26.832 15.5774 -27.6717 12.7831 -27.9823 9.32599L38.4168 3.35982ZM32.8332 -13.0492C30.9786 -16.011 28.8576 -18.5163 26.7695 -20.5155L-19.3347 27.6389C-20.2614 26.7516 -21.0197 25.9116 -21.6427 25.1525C-22.2863 24.3684 -22.9805 23.4332 -23.6703 22.3315L32.8332 -13.0492ZM-19.1581 26.4109C-20.4728 25.0869 -21.7101 23.5778 -22.8228 21.8007L33.6808 -13.5798C31.9486 -16.3462 30.017 -18.6809 28.1489 -20.5623L-19.1581 26.4109ZM-22.8228 21.8008C-23.9958 19.9275 -26.4172 15.5704 -26.9864 9.23643L39.4128 3.27041C38.6996 -4.66713 35.5971 -10.5195 33.6808 -13.5799L-22.8228 21.8008ZM-26.9864 9.2362C-25.7853 22.6048 -14.8763 41.2534 7.64219 41.498L8.36614 -25.1648C17.2314 -25.0685 25.4529 -21.2595 31.2224 -15.0365C36.7011 -9.12698 38.9128 -2.29459 39.4128 3.27064L-26.9864 9.2362ZM7.62577 41.4978C15.5517 41.5877 23.2072 38.8966 29.2912 33.9954L-12.5319 -17.9206C-6.64817 -22.6605 0.726719 -25.2515 8.38255 -25.1646L7.62577 41.4978ZM29.2921 33.9946C35.8292 28.728 41.8766 19.6162 41.8428 7.71209L-24.8236 7.90095C-24.8569 -3.86198 -18.8765 -12.8091 -12.5329 -17.9199L29.2921 33.9946ZM41.8429 7.72077C41.8337 4.1555 41.2704 1.07166 40.6022 -1.35898L-23.6799 16.3119C-24.2866 14.1048 -24.815 11.2502 -24.8236 7.89226L41.8429 7.72077ZM40.6056 -1.34652C42.1738 4.36673 42.6194 12.5851 38.5408 20.9946L-21.4431 -8.09784C-25.8816 1.05364 -25.4129 9.9979 -23.6833 16.2994L40.6056 -1.34652ZM38.5407 20.9947C35.2381 27.8043 30.3608 31.5536 27.9328 33.1578L-8.81705 -22.465C-11.989 -20.3693 -17.6271 -15.9659 -21.4431 -8.09795L38.5407 20.9947ZM27.935 33.1563C27.4526 33.4751 27.0683 33.7079 26.8658 33.8286C26.682 33.9382 26.5338 34.0226 26.6423 33.9602L-6.57847 -23.8397C-6.59485 -23.8302 -7.65473 -23.233 -8.81922 -22.4635L27.935 33.1563ZM26.6224 33.9716C26.6649 33.9472 26.7035 33.925 26.7367 33.9059L-6.55413 -23.8536C-6.55985 -23.8503 -6.56085 -23.8498 -6.55862 -23.8511L26.6224 33.9716ZM26.7393 33.9044C26.913 33.8043 28.3673 32.9834 30.0009 31.8093L-8.90727 -22.3257C-8.16052 -22.8624 -7.5389 -23.2577 -7.15891 -23.4919C-6.9658 -23.611 -6.81106 -23.7031 -6.71571 -23.7593C-6.62265 -23.8142 -6.55886 -23.8509 -6.55671 -23.8522L26.7393 33.9044ZM29.9959 31.8129C30.7876 31.2441 31.7969 30.4756 32.8905 29.5153C33.2557 29.1946 36.251 26.6578 38.9105 22.6193L-16.7675 -14.0469C-15.1816 -16.455 -13.6387 -18.0973 -13.0271 -18.7337C-12.2381 -19.5546 -11.5541 -20.1787 -11.0982 -20.579C-10.1813 -21.3842 -9.4065 -21.9671 -8.90219 -22.3294L29.9959 31.8129ZM38.9041 22.6289C41.3221 18.9599 42.7415 15.2897 43.5606 12.3057L-20.7276 -5.34254C-20.3282 -6.79762 -19.8455 -8.12907 -19.3176 -9.34468C-18.8365 -10.4525 -18.0298 -12.1315 -16.7612 -14.0565L38.9041 22.6289ZM43.5594 12.3103C44.2512 9.79154 45.0386 5.87722 44.7828 1.12822L-21.7874 4.71449C-21.921 2.23391 -21.7468 0.180556 -21.556 -1.25087C-21.3519 -2.78208 -21.0545 -4.15256 -20.7264 -5.34713L43.5594 12.3103ZM30.4338 -24.511C24.0513 -28.9167 16.2765 -31.5001 7.9987 -31.5001V35.1666C2.31954 35.1666 -3.04417 33.387 -7.4384 30.3537L30.4338 -24.511ZM7.9987 -31.5001C-0.291474 -31.5001 -8.07652 -28.9091 -14.464 -24.492L23.4548 30.3406C19.0572 33.3817 13.6863 35.1666 7.9987 35.1666V-31.5001ZM48.2333 12.6346C48.4098 11.0996 48.4987 9.55234 48.4987 7.99992H-18.168C-18.168 7.00683 -18.1111 6.01134 -17.997 5.01895L48.2333 12.6346ZM48.4987 7.99992C48.4987 -14.3675 30.3663 -32.5001 7.9987 -32.5001V34.1666C-6.45281 34.1666 -18.168 22.4513 -18.168 7.99992H48.4987ZM7.9987 -32.5001C-14.3688 -32.5001 -32.5013 -14.3676 -32.5013 7.99992H34.1654C34.1654 22.4514 22.4501 34.1666 7.9987 34.1666V-32.5001ZM-32.5013 7.99992C-32.5013 30.3676 -14.3688 48.4999 7.9987 48.4999V-18.1667C22.4501 -18.1667 34.1654 -6.45159 34.1654 7.99992H-32.5013ZM7.9987 48.4999C28.5967 48.4999 45.5572 33.1534 48.157 13.2561L-17.9478 4.61892C-16.2666 -8.24841 -5.31873 -18.1667 7.9987 -18.1667V48.4999ZM47.1343 18.1681C47.1225 18.2093 47.0683 18.3976 46.9925 18.6449C46.9235 18.8702 46.767 19.3736 46.5406 20.0096L-16.2671 -2.34299C-16.5029 -1.68033 -16.6694 -1.146 -16.7491 -0.885844C-16.8356 -0.603719 -16.9011 -0.376617 -16.9252 -0.29311L47.1343 18.1681ZM26.1833 -22.6164L26.1647 -22.6229L4.07163 40.2765L4.09023 40.283L26.1833 -22.6164ZM1.79736 -20.093C5.54624 -21.4671 8.92029 -21.8623 11.4655 -21.889L12.1667 44.7739C15.8654 44.735 20.1966 44.1668 24.7396 42.5017L1.79736 -20.093ZM11.8161 -21.8909H11.8108V44.7758H11.8161V-21.8909ZM11.8108 -21.8909H11.8091V44.7758H11.8108V-21.8909ZM11.3215 -21.8873L11.3078 -21.8871L12.283 44.7724L12.2967 44.7722L11.3215 -21.8873ZM11.1117 -21.8837C10.9846 -21.8811 10.7352 -21.8754 10.4191 -21.8629L13.0508 44.7518C12.7887 44.7622 12.5801 44.7669 12.479 44.769L11.1117 -21.8837ZM10.3797 -21.8613C9.87935 -21.841 9.24976 -21.8053 8.52268 -21.7401L14.4816 44.6598C13.9522 44.7073 13.4824 44.7343 13.0902 44.7502L10.3797 -21.8613ZM8.52849 -21.7406C7.16194 -21.6182 5.1487 -21.3655 2.794 -20.7868L18.7059 43.9531C16.9203 44.392 15.4449 44.5735 14.4758 44.6603L8.52849 -21.7406ZM2.79397 -20.7868C0.132034 -20.1325 -12.8066 -16.8503 -20.0466 -3.20627L38.8427 28.0426C35.208 34.8922 30.0694 38.7343 26.7749 40.6632C23.4442 42.6133 20.4868 43.5154 18.706 43.9531L2.79397 -20.7868ZM-20.0459 -3.2077C-25.6768 7.4026 -24.3319 17.4518 -22.9651 22.5971L41.4671 5.48167C42.6073 9.7742 43.8655 18.5782 38.8419 28.0441L-20.0459 -3.2077ZM15.9851 46.6854C26.9631 44.4209 36.1715 37.6766 41.7329 28.5504L-15.1959 -6.14176C-11.3833 -12.3982 -5.06252 -17.0432 2.51684 -18.6066L15.9851 46.6854Z" fill="#686796" mask="url(#path-1-inside-1_202_119497)"/>
</g>
<defs>
<clipPath id="clip0_202_119497">
<rect width="16" height="16" fill="white"/>
</clipPath>
</defs>
</svg>
