<svg width="12" height="12" viewBox="0 0 12 12" fill="none" xmlns="http://www.w3.org/2000/svg">
<g clip-path="url(#clip0_546_80010)">
<path fill-rule="evenodd" clip-rule="evenodd" d="M6 1.375C3.44568 1.375 1.375 3.44568 1.375 6C1.375 8.5543 3.44568 10.625 6 10.625C8.5543 10.625 10.625 8.5543 10.625 6C10.625 3.44568 8.5543 1.375 6 1.375ZM0.625 6C0.625 3.03147 3.03147 0.625 6 0.625C8.96855 0.625 11.375 3.03147 11.375 6C11.375 8.96855 8.96855 11.375 6 11.375C3.03147 11.375 0.625 8.96855 0.625 6ZM4.19873 7.7767C4.32207 7.6103 4.55693 7.5754 4.7233 7.69875C5.0875 7.96865 5.52705 8.125 6 8.125C6.47295 8.125 6.9125 7.96865 7.2767 7.69875C7.4431 7.5754 7.67795 7.6103 7.80125 7.7767C7.9246 7.9431 7.8897 8.17795 7.7233 8.30125C7.2371 8.66165 6.6425 8.875 6 8.875C5.3575 8.875 4.7629 8.66165 4.27669 8.30125C4.11031 8.17795 4.07541 7.9431 4.19873 7.7767Z" fill="#717281"/>
<path d="M8 5.25C8 5.6642 7.77615 6 7.5 6C7.22385 6 7 5.6642 7 5.25C7 4.83579 7.22385 4.5 7.5 4.5C7.77615 4.5 8 4.83579 8 5.25Z" fill="#717281"/>
<path d="M5 5.25C5 5.6642 4.77614 6 4.5 6C4.22386 6 4 5.6642 4 5.25C4 4.83579 4.22386 4.5 4.5 4.5C4.77614 4.5 5 4.83579 5 5.25Z" fill="#717281"/>
</g>
<defs>
<clipPath id="clip0_546_80010">
<rect width="12" height="12" fill="white"/>
</clipPath>
</defs>
</svg>
