<svg width="12" height="12" viewBox="0 0 12 12" fill="none" xmlns="http://www.w3.org/2000/svg">
<path d="M5.96002 11.375C3.00002 11.375 0.585022 8.965 0.585022 6C0.585022 3.035 3.00002 0.625 5.96002 0.625C8.92002 0.625 11.335 3.035 11.335 6C11.335 8.965 8.92502 11.375 5.96002 11.375ZM5.96002 1.375C3.41002 1.375 1.33502 3.45 1.33502 6C1.33502 8.55 3.41002 10.625 5.96002 10.625C8.51002 10.625 10.585 8.55 10.585 6C10.585 3.45 8.51002 1.375 5.96002 1.375Z" fill="#717281"/>
<path d="M7.96002 6.375H3.96002C3.75502 6.375 3.58502 6.205 3.58502 6C3.58502 5.795 3.75502 5.625 3.96002 5.625H7.96002C8.16502 5.625 8.33502 5.795 8.33502 6C8.33502 6.205 8.17002 6.375 7.96002 6.375Z" fill="#292D32"/>
</svg>
