<svg width="16" height="16" viewBox="0 0 16 16" fill="none" xmlns="http://www.w3.org/2000/svg">
<path d="M5.33331 3.83331C5.05998 3.83331 4.83331 3.60665 4.83331 3.33331V1.33331C4.83331 1.05998 5.05998 0.833313 5.33331 0.833313C5.60665 0.833313 5.83331 1.05998 5.83331 1.33331V3.33331C5.83331 3.60665 5.60665 3.83331 5.33331 3.83331Z" fill="#7F51F2"/>
<path d="M10.6667 3.83331C10.3934 3.83331 10.1667 3.60665 10.1667 3.33331V1.33331C10.1667 1.05998 10.3934 0.833313 10.6667 0.833313C10.94 0.833313 11.1667 1.05998 11.1667 1.33331V3.33331C11.1667 3.60665 10.94 3.83331 10.6667 3.83331Z" fill="#7F51F2"/>
<path d="M5.66667 9.66667C5.58 9.66667 5.49333 9.65335 5.41333 9.61335C5.33333 9.58001 5.26 9.53333 5.19333 9.47333C5.07333 9.34667 5 9.17334 5 9C5 8.91334 5.02 8.82667 5.05333 8.74667C5.08667 8.66667 5.13333 8.59334 5.19333 8.52668C5.26 8.46668 5.33333 8.42 5.41333 8.38666C5.65333 8.28666 5.95334 8.34001 6.14 8.52668C6.2 8.59334 6.24667 8.66667 6.28 8.74667C6.31333 8.82667 6.33333 8.91334 6.33333 9C6.33333 9.17334 6.26 9.34667 6.14 9.47333C6.01334 9.59333 5.84 9.66667 5.66667 9.66667Z" fill="#7F51F2"/>
<path d="M7.99998 9.66664C7.82665 9.66664 7.65331 9.5933 7.52664 9.4733C7.46664 9.40664 7.41998 9.33331 7.38665 9.25331C7.35331 9.17331 7.33331 9.08664 7.33331 8.99998C7.33331 8.82664 7.40664 8.65332 7.52664 8.52665C7.71331 8.33998 8.00665 8.27997 8.25332 8.38663C8.33332 8.41997 8.40665 8.46665 8.47332 8.52665C8.59332 8.65332 8.66665 8.82664 8.66665 8.99998C8.66665 9.08664 8.65331 9.17331 8.61331 9.25331C8.57998 9.33331 8.53332 9.40664 8.47332 9.4733C8.40665 9.5333 8.33332 9.57999 8.25332 9.61332C8.17332 9.65332 8.08665 9.66664 7.99998 9.66664Z" fill="#7F51F2"/>
<path d="M5.66667 12C5.58 12 5.49333 11.98 5.41333 11.9467C5.33333 11.9134 5.26 11.8667 5.19333 11.8067C5.07333 11.68 5 11.5134 5 11.3334C5 11.2467 5.02 11.16 5.05333 11.08C5.08667 10.9933 5.13333 10.9267 5.19333 10.86C5.26 10.8 5.33333 10.7533 5.41333 10.72C5.65333 10.6133 5.95334 10.6734 6.14 10.86C6.2 10.9267 6.24667 10.9933 6.28 11.08C6.31333 11.16 6.33333 11.2467 6.33333 11.3334C6.33333 11.5134 6.26 11.68 6.14 11.8067C6.01334 11.9267 5.84 12 5.66667 12Z" fill="#7F51F2"/>
<path d="M13.6666 6.56H2.33331C2.05998 6.56 1.83331 6.33333 1.83331 6.06C1.83331 5.78666 2.05998 5.56 2.33331 5.56H13.6666C13.94 5.56 14.1666 5.78666 14.1666 6.06C14.1666 6.33333 13.94 6.56 13.6666 6.56Z" fill="#7F51F2"/>
<path d="M12 15.8333C10.2533 15.8333 8.83331 14.4133 8.83331 12.6667C8.83331 10.92 10.2533 9.5 12 9.5C13.7466 9.5 15.1666 10.92 15.1666 12.6667C15.1666 14.4133 13.7466 15.8333 12 15.8333ZM12 10.5C10.8066 10.5 9.83331 11.4733 9.83331 12.6667C9.83331 13.86 10.8066 14.8333 12 14.8333C13.1933 14.8333 14.1666 13.86 14.1666 12.6667C14.1666 11.4733 13.1933 10.5 12 10.5Z" fill="#7F51F2"/>
<path d="M12.9933 13.2H11C10.7267 13.2 10.5 12.9733 10.5 12.7C10.5 12.4266 10.7267 12.2 11 12.2H12.9933C13.2667 12.2 13.4933 12.4266 13.4933 12.7C13.4933 12.9733 13.2733 13.2 12.9933 13.2Z" fill="#7F51F2"/>
<path d="M12 14.22C11.7267 14.22 11.5 13.9933 11.5 13.72V11.7266C11.5 11.4533 11.7267 11.2266 12 11.2266C12.2733 11.2266 12.5 11.4533 12.5 11.7266V13.72C12.5 13.9933 12.2733 14.22 12 14.22Z" fill="#7F51F2"/>
<path d="M10.2467 15.1666H5.33333C2.9 15.1666 1.5 13.7666 1.5 11.3333V5.66665C1.5 3.23331 2.9 1.83331 5.33333 1.83331H10.6667C13.1 1.83331 14.5 3.23331 14.5 5.66665V10.9066C14.5 11.1133 14.3733 11.3 14.1733 11.3733C13.98 11.4466 13.76 11.3933 13.62 11.2333C13.2067 10.7667 12.6133 10.5 11.9933 10.5C10.8 10.5 9.82667 11.4733 9.82667 12.6666C9.82667 13.06 9.93334 13.4467 10.14 13.78C10.2533 13.98 10.4 14.1466 10.56 14.2866C10.72 14.42 10.78 14.64 10.7067 14.84C10.6467 15.0333 10.46 15.1666 10.2467 15.1666ZM5.33333 2.83331C3.42667 2.83331 2.5 3.75998 2.5 5.66665V11.3333C2.5 13.24 3.42667 14.1666 5.33333 14.1666H9.21334C8.96667 13.7133 8.83333 13.2 8.83333 12.6666C8.83333 10.92 10.2533 9.49998 12 9.49998C12.5267 9.49998 13.0467 9.63332 13.5 9.87998V5.66665C13.5 3.75998 12.5733 2.83331 10.6667 2.83331H5.33333Z" fill="#7F51F2"/>
</svg>
