<svg width="24" height="24" viewBox="0 0 24 24" fill="none" xmlns="http://www.w3.org/2000/svg">
<path d="M12 18.75C11.59 18.75 11.25 18.41 11.25 18V15.0001C11.25 14.5901 11.59 14.2501 12 14.2501C12.41 14.2501 12.75 14.5901 12.75 15.0001V18C12.75 18.41 12.41 18.75 12 18.75Z" fill="#292D32"/>
<path d="M17.6 22.5601H6.40004C4.58004 22.5601 2.92004 21.1601 2.62004 19.3701L1.29004 11.4001C1.07004 10.1601 1.68004 8.57005 2.67004 7.78005L9.60004 2.23005C10.94 1.15005 13.05 1.16005 14.4 2.24005L21.33 7.78005C22.31 8.57005 22.91 10.1601 22.71 11.4001L21.38 19.3601C21.08 21.1301 19.38 22.5601 17.6 22.5601ZM11.99 2.93005C11.46 2.93005 10.93 3.09005 10.54 3.40005L3.61004 8.96005C3.05004 9.41005 2.65004 10.4501 2.77004 11.1601L4.10004 19.1201C4.28004 20.1701 5.33004 21.0601 6.40004 21.0601H17.6C18.67 21.0601 19.72 20.1701 19.9 19.1101L21.23 11.1501C21.34 10.4501 20.94 9.39005 20.39 8.95005L13.46 3.41005C13.06 3.09005 12.52 2.93005 11.99 2.93005Z" fill="#292D32"/>
</svg>
