<svg width="12" height="12" viewBox="0 0 12 12" fill="none" xmlns="http://www.w3.org/2000/svg">
<path fill-rule="evenodd" clip-rule="evenodd" d="M7.0496 1.19555C7.81035 0.434818 9.04375 0.434818 9.80445 1.19555C10.5652 1.95628 10.5652 3.18966 9.80445 3.95039L6.00745 7.7474C5.79345 7.9614 5.66275 8.0921 5.5171 8.20575C5.3455 8.3396 5.1598 8.45435 4.96333 8.548C4.79657 8.62745 4.62122 8.6859 4.33409 8.7816L2.99776 9.22705L2.67693 9.334C2.38975 9.4297 2.07314 9.35495 1.8591 9.1409C1.64505 8.92685 1.57031 8.61025 1.66603 8.3231L2.21841 6.6659C2.31411 6.3788 2.37255 6.20345 2.45202 6.0367C2.54566 5.8402 2.66042 5.6545 2.79428 5.4829C2.90789 5.33725 3.03859 5.20655 3.25262 4.99255L7.0496 1.19555ZM2.98046 8.44225L2.55778 8.01955L2.92199 6.9269C3.02803 6.6088 3.07183 6.47945 3.12907 6.35935C3.19927 6.21205 3.2853 6.07285 3.38566 5.94415C3.46748 5.83925 3.56359 5.74225 3.8007 5.5051L6.7462 2.55964C6.86775 2.86463 7.0735 3.23274 7.4204 3.57963C7.76725 3.92653 8.1354 4.13224 8.44035 4.25382L5.4949 7.1993C5.25775 7.4364 5.16075 7.5325 5.05585 7.61435C4.92718 7.7147 4.78797 7.80075 4.64067 7.87095C4.52056 7.9282 4.39122 7.972 4.07309 8.078L2.98046 8.44225ZM9.038 3.6562C8.97605 3.64261 8.89865 3.62216 8.81065 3.59162C8.56865 3.50766 8.2503 3.34889 7.9507 3.0493C7.6511 2.74972 7.49235 2.43138 7.4084 2.18937C7.37785 2.10135 7.3574 2.02394 7.3438 1.96202L7.57995 1.72588C8.0478 1.25804 8.8063 1.25804 9.27415 1.72588C9.74195 2.19371 9.74195 2.95222 9.27415 3.42005L9.038 3.6562ZM1.62501 11C1.62501 10.7929 1.7929 10.625 2.00001 10.625H10V11.375H2.00001C1.7929 11.375 1.62501 11.2071 1.62501 11Z" fill="#717281"/>
</svg>
