<svg width="16" height="16" viewBox="0 0 16 16" fill="none" xmlns="http://www.w3.org/2000/svg">
<path d="M8 10C6.89614 10 6 9.10386 6 8M8 10C9.10386 10 10 9.10386 10 8M8 10C9.10281 10 10 9.10281 10 8M8 10C6.89719 10 6 9.10281 6 8M6 8C6 6.89614 6.89614 6 8 6M6 8C6 6.89719 6.89719 6 8 6M10 8C10 6.89614 9.10386 6 8 6M10 8C10 6.89719 9.10281 6 8 6" fill="#686796" stroke="#686796"/>
<path d="M12.9254 12.8468C13.052 12.3934 12.9854 11.9134 12.752 11.5068C12.552 11.1668 12.5054 10.8601 12.6187 10.6668C12.732 10.4734 13.0187 10.3601 13.412 10.3601C14.3854 10.3601 15.1787 9.56678 15.1787 8.59344V7.42011C15.1787 6.44678 14.3854 5.65344 13.412 5.65344C13.0187 5.65344 12.732 5.54011 12.6187 5.34678C12.5054 5.15344 12.5587 4.84678 12.752 4.50678C12.9854 4.10011 13.0454 3.62678 12.9254 3.16678L12.4416 3.29299C12.4418 3.29408 12.4421 3.29517 12.4424 3.29625M12.9254 12.8468L12.4424 3.29625M12.9254 12.8468C12.8054 13.3068 12.512 13.6868 12.0987 13.9201L12.9254 12.8468ZM12.4424 3.29625C12.3614 3.00492 12.1905 2.76215 11.9553 2.59466C12.1764 2.76188 12.3451 2.99679 12.4218 3.28461C12.5083 3.60905 12.4663 3.95229 12.2985 4.2433L12.2976 4.24483C11.9796 4.79156 11.9856 5.26947 12.1662 5.58537C12.2312 5.69927 12.327 5.8041 12.4537 5.89124C12.3489 5.81518 12.2575 5.71931 12.1873 5.59964C12.0533 5.37103 12.0417 5.11759 12.0769 4.90144C12.1124 4.6834 12.2006 4.46497 12.3174 4.25963L12.3183 4.25794C12.4842 3.96887 12.5291 3.63185 12.4424 3.29625ZM14.1571 6.3971C14.4629 6.62947 14.6587 6.99719 14.6587 7.40678V8.58011C14.6587 9.28292 14.0948 9.84678 13.392 9.84678C12.7508 9.84678 12.344 10.0903 12.1662 10.4015C11.9856 10.7174 11.9796 11.1953 12.2976 11.7421L12.2985 11.7436C12.4663 12.0346 12.5083 12.3778 12.4218 12.7023C12.3329 13.0358 12.1123 13.3094 11.8289 13.473L14.1571 6.3971ZM14.1571 6.3971C14.4728 6.62793 14.6787 7.00094 14.6787 7.42011V8.59344C14.6787 9.29063 14.1092 9.86011 13.412 9.86011C12.9705 9.86011 12.4407 9.98172 12.1873 10.4139C11.9306 10.8519 12.0969 11.378 12.3195 11.7576C12.4877 12.052 12.5329 12.3934 12.4438 12.7122L12.4437 12.7122L12.4416 12.7206C12.3558 13.0491 12.1486 13.3177 11.8529 13.4847L11.8529 13.4847L11.8504 13.4861L10.7005 14.1442C10.5179 14.2445 10.3283 14.2934 10.1387 14.2934C10.0485 14.2934 9.95086 14.2809 9.84295 14.2557C9.68675 14.2117 9.54566 14.1387 9.42511 14.0407C9.54873 14.1404 9.69371 14.2126 9.85076 14.2518C10.1251 14.3204 10.4216 14.2906 10.6786 14.1379L11.8286 13.4732L14.1571 6.3971ZM3.74127 13.0892C3.79348 13.1671 3.85393 13.2385 3.92174 13.3025C3.85441 13.2385 3.79376 13.1672 3.74127 13.0892ZM3.74127 13.0892C3.66525 12.9758 3.6067 12.8487 3.56832 12.7106C3.48164 12.375 3.52652 12.038 3.69238 11.7489L3.69334 11.7473C3.79362 11.5709 3.87288 11.3849 3.91574 11.1978C3.87777 11.37 3.80579 11.5551 3.69315 11.7487L3.69227 11.7502C3.52438 12.0413 3.4824 12.3845 3.56891 12.7089C3.60619 12.8487 3.66515 12.9761 3.74127 13.0892ZM9.08937 13.6127C8.85679 13.2123 8.49159 12.8568 7.99536 12.8568C7.61393 12.8568 7.30991 13.0669 7.08403 13.3459C7.37081 12.9836 7.70168 12.8268 7.9987 12.8268C8.36229 12.8268 8.7726 13.0548 9.09205 13.6096L9.09265 13.6106L9.16458 13.7348C9.16486 13.7353 9.16515 13.7358 9.16543 13.7363C9.1962 13.79 9.23112 13.8403 9.2697 13.8871C9.2323 13.8421 9.19812 13.794 9.16744 13.7429L9.08937 13.6127ZM6.14247 14.2579C6.39487 14.1941 6.6008 14.0456 6.74667 13.8602C6.59479 14.0583 6.38879 14.1953 6.15376 14.256L6.15375 14.2559L6.14844 14.2574C5.85805 14.3357 5.56479 14.294 5.31595 14.1447L5.31599 14.1446L5.30812 14.1401L5.11709 14.0301L5.30403 14.1371C5.56505 14.2954 5.86902 14.3286 6.14247 14.2579ZM3.82458 10.4082C3.83351 10.4238 3.84202 10.4398 3.85008 10.4562C3.84178 10.4398 3.83289 10.4235 3.82338 10.4073C3.77592 10.3263 3.71877 10.2562 3.6543 10.1958C3.72463 10.2609 3.78136 10.3326 3.82458 10.4082ZM2.5987 9.85344C2.80347 9.85344 2.98435 9.87828 3.14149 9.92222C2.96179 9.87247 2.77333 9.85344 2.5987 9.85344ZM8.0087 3.15011C8.15573 3.15011 8.29125 3.1189 8.41524 3.06455C8.27244 3.13446 8.12893 3.16678 7.99203 3.16678C7.62932 3.16678 7.22013 2.93991 6.90102 2.38802L6.83014 2.25915L6.82604 2.25169L6.82168 2.24437C6.78602 2.18445 6.74532 2.12906 6.70043 2.07844C6.75037 2.13361 6.79557 2.19463 6.83498 2.26127L6.83497 2.26127L6.83662 2.26403L6.91468 2.39413C7.14727 2.79455 7.51247 3.15011 8.0087 3.15011ZM4.16037 2.52074L4.27222 2.45674L4.16217 2.52035L4.41203 2.95344L4.16181 2.52056L4.16206 2.52041C3.87855 2.68401 3.65789 2.95761 3.56891 3.29128C3.53883 3.40408 3.52429 3.51915 3.52516 3.6335C3.52408 3.51841 3.53848 3.40228 3.56872 3.28806L3.56917 3.28632C3.65489 2.95776 3.86209 2.68914 4.15783 2.52219L4.15783 2.5222L4.16037 2.52074ZM3.69123 4.24926C3.65582 4.18728 3.62598 4.12284 3.6018 4.05663C3.62617 4.123 3.65634 4.18768 3.69227 4.24997L3.69227 4.24997L3.69316 4.2515C3.73362 4.32107 3.76884 4.38953 3.79912 4.45669C3.76606 4.38401 3.72948 4.31448 3.69123 4.24926ZM3.82338 5.59297C3.83172 5.57875 3.83961 5.56443 3.84707 5.55003C3.83991 5.56433 3.83241 5.57834 3.82458 5.59204C3.78136 5.66767 3.72462 5.7393 3.65429 5.80441C3.71875 5.744 3.77592 5.67393 3.82338 5.59297Z" fill="#686796" stroke="#686796"/>
</svg>
