<svg width="12" height="12" viewBox="0 0 12 12" fill="none" xmlns="http://www.w3.org/2000/svg">
<path d="M1.65012 11.375C1.47012 11.375 1.29511 11.33 1.14511 11.24C0.810111 11.045 0.620117 10.655 0.620117 10.17V4.49001C0.620117 3.42501 1.48511 2.56 2.55011 2.56H6.44012C7.50512 2.56 8.37012 3.42501 8.37012 4.49001V10.17C8.37012 10.655 8.18012 11.04 7.84512 11.24C7.51012 11.435 7.08012 11.415 6.65512 11.18L4.69012 10.085C4.59512 10.03 4.39511 10.03 4.30011 10.085L2.33511 11.18C2.10511 11.31 1.87012 11.375 1.65012 11.375ZM2.55511 3.315C1.90511 3.315 1.37512 3.845 1.37512 4.495V10.175C1.37512 10.38 1.43512 10.54 1.53012 10.595C1.62512 10.65 1.79513 10.625 1.97513 10.525L3.94012 9.42999C4.26012 9.25499 4.74012 9.25499 5.06012 9.42999L7.02512 10.525C7.20512 10.625 7.37012 10.65 7.47012 10.595C7.56512 10.54 7.62512 10.38 7.62512 10.175V4.495C7.62512 3.845 7.09513 3.315 6.44513 3.315H2.55511Z" fill="#717281"/>
<path d="M7.345 11.375C7.125 11.375 6.895 11.31 6.66 11.185L4.69501 10.09C4.60001 10.04 4.39499 10.04 4.29999 10.09L2.34 11.185C1.915 11.42 1.47999 11.44 1.14999 11.245C0.814994 11.05 0.625 10.66 0.625 10.18V4.5C0.625 3.435 1.48999 2.57001 2.55499 2.57001H6.44501C7.51001 2.57001 8.375 3.435 8.375 4.5V10.18C8.375 10.66 8.18501 11.05 7.85001 11.245C7.70001 11.33 7.53 11.375 7.345 11.375ZM4.5 9.3C4.7 9.3 4.895 9.345 5.06 9.435L7.02499 10.53C7.20499 10.63 7.375 10.655 7.47 10.595C7.565 10.54 7.625 10.38 7.625 10.175V4.495C7.625 3.845 7.09501 3.315 6.44501 3.315H2.55499C1.90499 3.315 1.375 3.845 1.375 4.495V10.175C1.375 10.38 1.435 10.54 1.53 10.595C1.625 10.65 1.79501 10.625 1.97501 10.525L3.94 9.42999C4.1 9.34499 4.3 9.3 4.5 9.3Z" fill="#717281"/>
<path d="M10.345 9.435C10.125 9.435 9.895 9.37 9.66 9.245L7.815 8.215C7.695 8.15 7.625 8.025 7.625 7.89V4.5C7.625 3.85 7.09501 3.32001 6.44501 3.32001H4C3.795 3.32001 3.625 3.15001 3.625 2.94501V2.56C3.625 1.495 4.48999 0.630005 5.55499 0.630005H9.44501C10.51 0.630005 11.375 1.495 11.375 2.56V8.24001C11.375 8.72001 11.185 9.10999 10.85 9.30499C10.7 9.38999 10.53 9.435 10.345 9.435ZM8.375 7.66499L10.025 8.59C10.205 8.69 10.37 8.715 10.47 8.655C10.57 8.595 10.625 8.44 10.625 8.235V2.55499C10.625 1.90499 10.095 1.375 9.44501 1.375H5.55499C4.90499 1.375 4.375 1.90499 4.375 2.55499V2.565H6.44501C7.51001 2.565 8.375 3.43 8.375 4.495V7.66499Z" fill="#717281"/>
</svg>
