<svg width="16" height="16" viewBox="0 0 16 16" fill="none" xmlns="http://www.w3.org/2000/svg">
<path d="M9.9987 15.1666H5.9987C2.3787 15.1666 0.832031 13.6199 0.832031 9.99992V5.99992C0.832031 2.37992 2.3787 0.833252 5.9987 0.833252H9.9987C13.6187 0.833252 15.1654 2.37992 15.1654 5.99992V9.99992C15.1654 13.6199 13.6187 15.1666 9.9987 15.1666ZM5.9987 1.83325C2.92536 1.83325 1.83203 2.92659 1.83203 5.99992V9.99992C1.83203 13.0733 2.92536 14.1666 5.9987 14.1666H9.9987C13.072 14.1666 14.1654 13.0733 14.1654 9.99992V5.99992C14.1654 2.92659 13.072 1.83325 9.9987 1.83325H5.9987Z" fill="#686796"/>
<path d="M9.40523 11.7399C9.27857 11.7399 9.1519 11.6933 9.0519 11.5933C8.85857 11.3999 8.85857 11.0799 9.0519 10.8866L11.0786 8.85993C11.2719 8.66659 11.5919 8.66659 11.7852 8.85993C11.9786 9.05326 11.9786 9.37326 11.7852 9.56659L9.75857 11.5933C9.66523 11.6866 9.53857 11.7399 9.40523 11.7399Z" fill="#686796"/>
<path d="M11.4321 9.71326H4.56543C4.2921 9.71326 4.06543 9.48659 4.06543 9.21326C4.06543 8.93992 4.2921 8.71326 4.56543 8.71326H11.4388C11.7121 8.71326 11.9388 8.93992 11.9388 9.21326C11.9388 9.48659 11.7121 9.71326 11.4321 9.71326Z" fill="#686796"/>
<path d="M4.56539 7.2866C4.43872 7.2866 4.31206 7.23993 4.21206 7.13993C4.01872 6.9466 4.01872 6.6266 4.21206 6.43326L6.23872 4.4066C6.43206 4.21326 6.75206 4.21326 6.94539 4.4066C7.13872 4.59993 7.13872 4.91993 6.94539 5.11326L4.91872 7.13993C4.81872 7.23993 4.69206 7.2866 4.56539 7.2866Z" fill="#686796"/>
<path d="M11.4321 7.28662L4.56539 7.2866C4.29206 7.2866 4.06543 7.05995 4.06543 6.78662C4.06543 6.51329 4.2921 6.28662 4.56543 6.28662H11.4388C11.7121 6.28662 11.9388 6.51329 11.9388 6.78662C11.9388 7.05995 11.7121 7.28662 11.4321 7.28662Z" fill="#686796"/>
</svg>
