<svg width="16" height="16" viewBox="0 0 16 16" fill="none" xmlns="http://www.w3.org/2000/svg">
<mask id="path-1-inside-1_516_44571" fill="white">
<path d="M4.2126 5.75337C4.33927 5.75337 4.46594 5.80004 4.56594 5.90004C4.75927 6.09337 4.75927 6.41337 4.56594 6.60671L3.2126 7.96004L4.56594 9.31337C4.75927 9.50671 4.75927 9.82671 4.56594 10.02C4.3726 10.2134 4.0526 10.2134 3.85927 10.02L2.1526 8.31337C1.95927 8.12004 1.95927 7.80004 2.1526 7.60671L3.85927 5.90004C3.95927 5.80004 4.08594 5.75337 4.2126 5.75337Z"/>
</mask>
<path d="M4.2126 5.75337C4.33927 5.75337 4.46594 5.80004 4.56594 5.90004C4.75927 6.09337 4.75927 6.41337 4.56594 6.60671L3.2126 7.96004L4.56594 9.31337C4.75927 9.50671 4.75927 9.82671 4.56594 10.02C4.3726 10.2134 4.0526 10.2134 3.85927 10.02L2.1526 8.31337C1.95927 8.12004 1.95927 7.80004 2.1526 7.60671L3.85927 5.90004C3.95927 5.80004 4.08594 5.75337 4.2126 5.75337Z" fill="#686796"/>
<path d="M4.56594 6.60671L5.27304 7.31381L5.27304 7.31381L4.56594 6.60671ZM3.2126 7.96004L2.5055 7.25293L1.79839 7.96004L2.5055 8.66715L3.2126 7.96004ZM4.56594 9.31337L3.85883 10.0205L4.56594 9.31337ZM3.85927 10.02L4.56638 9.31293L4.56638 9.31293L3.85927 10.02ZM2.1526 8.31337L1.4455 9.02048L1.4455 9.02048L2.1526 8.31337ZM2.1526 7.60671L1.4455 6.8996L1.4455 6.8996L2.1526 7.60671ZM3.85927 5.90004L4.56638 6.60715L4.56638 6.60715L3.85927 5.90004ZM4.2126 6.75337C4.08837 6.75337 3.95625 6.70456 3.85883 6.60715L5.27304 5.19293C4.97563 4.89551 4.59018 4.75337 4.2126 4.75337L4.2126 6.75337ZM3.85883 6.60715C3.66164 6.40995 3.66164 6.09679 3.85883 5.8996L5.27304 7.31381C5.8569 6.72995 5.8569 5.77679 5.27304 5.19293L3.85883 6.60715ZM3.85883 5.8996L2.5055 7.25293L3.91971 8.66715L5.27304 7.31381L3.85883 5.8996ZM2.5055 8.66715L3.85883 10.0205L5.27304 8.60627L3.91971 7.25293L2.5055 8.66715ZM3.85883 10.0205C3.66164 9.82329 3.66164 9.51012 3.85883 9.31293L5.27304 10.7271C5.8569 10.1433 5.8569 9.19012 5.27304 8.60627L3.85883 10.0205ZM3.85883 9.31293C4.05602 9.11574 4.36919 9.11574 4.56638 9.31293L3.15216 10.7271C3.73602 11.311 4.68919 11.311 5.27304 10.7271L3.85883 9.31293ZM4.56638 9.31293L2.85971 7.60627L1.4455 9.02048L3.15216 10.7271L4.56638 9.31293ZM2.85971 7.60627C3.0569 7.80346 3.0569 8.11662 2.85971 8.31381L1.4455 6.8996C0.86164 7.48346 0.86164 8.43662 1.4455 9.02048L2.85971 7.60627ZM2.85971 8.31381L4.56638 6.60715L3.15217 5.19293L1.4455 6.8996L2.85971 8.31381ZM4.56638 6.60715C4.46896 6.70456 4.33685 6.75337 4.2126 6.75337L4.2126 4.75337C3.83503 4.75337 3.44958 4.89551 3.15216 5.19293L4.56638 6.60715Z" fill="#686796" mask="url(#path-1-inside-1_516_44571)"/>
<path d="M2.55203 7.45996L9.33203 7.45996C9.60536 7.45996 9.83203 7.68663 9.83203 7.95996C9.83203 8.23329 9.60536 8.45996 9.33203 8.45996L2.55203 8.45996C2.2787 8.45996 2.05203 8.23329 2.05203 7.95996C2.05203 7.68663 2.2787 7.45996 2.55203 7.45996Z" fill="#686796"/>
<path d="M7.9987 2.16683C11.432 2.16683 13.832 4.56683 13.832 8.00016C13.832 11.4335 11.432 13.8335 7.9987 13.8335C7.72537 13.8335 7.4987 13.6068 7.4987 13.3335C7.4987 13.0602 7.72537 12.8335 7.9987 12.8335C10.8454 12.8335 12.832 10.8468 12.832 8.00016C12.832 5.1535 10.8454 3.16683 7.9987 3.16683C7.72537 3.16683 7.4987 2.94016 7.4987 2.66683C7.4987 2.3935 7.72537 2.16683 7.9987 2.16683Z" fill="#686796"/>
</svg>
