<svg width="12" height="12" viewBox="0 0 12 12" fill="none" xmlns="http://www.w3.org/2000/svg">
<path d="M8 11.375H1.5C1.02 11.375 0.625 10.98 0.625 10.5V4C0.625 1.79 1.79 0.625 4 0.625H8C10.21 0.625 11.375 1.79 11.375 4V8C11.375 10.21 10.21 11.375 8 11.375ZM4 1.375C2.21 1.375 1.375 2.21 1.375 4V10.5C1.375 10.57 1.43 10.625 1.5 10.625H8C9.79 10.625 10.625 9.79 10.625 8V4C10.625 2.21 9.79 1.375 8 1.375H4Z" fill="#717281"/>
<path d="M7.75 6.375H4.25C4.045 6.375 3.875 6.205 3.875 6C3.875 5.795 4.045 5.625 4.25 5.625H7.75C7.955 5.625 8.125 5.795 8.125 6C8.125 6.205 7.955 6.375 7.75 6.375Z" fill="#717281"/>
<path d="M6 8.125C5.795 8.125 5.625 7.955 5.625 7.75V4.25C5.625 4.045 5.795 3.875 6 3.875C6.205 3.875 6.375 4.045 6.375 4.25V7.75C6.375 7.955 6.205 8.125 6 8.125Z" fill="#717281"/>
</svg>
