<svg width="12" height="12" viewBox="0 0 12 12" fill="none" xmlns="http://www.w3.org/2000/svg">
<path d="M6.25012 7.375H5.00012C4.79512 7.375 4.62512 7.205 4.62512 7C4.62512 6.795 4.79512 6.625 5.00012 6.625H6.25012C7.56012 6.625 8.62512 5.56 8.62512 4.25C8.62512 2.94 7.56012 1.875 6.25012 1.875H3.75012C2.44012 1.875 1.37512 2.94 1.37512 4.25C1.37512 4.8 1.57012 5.33499 1.92012 5.75999C2.05012 5.91999 2.03012 6.15499 1.87012 6.28999C1.71012 6.41999 1.47512 6.40001 1.34012 6.24001C0.875118 5.68001 0.620117 4.975 0.620117 4.25C0.620117 2.525 2.02012 1.125 3.74512 1.125H6.24512C7.97012 1.125 9.37012 2.525 9.37012 4.25C9.37012 5.975 7.97512 7.375 6.25012 7.375Z" fill="#717281"/>
<path d="M8.25 10.875H5.75C4.025 10.875 2.625 9.475 2.625 7.75C2.625 6.025 4.025 4.625 5.75 4.625H7C7.205 4.625 7.375 4.795 7.375 5C7.375 5.205 7.205 5.375 7 5.375H5.75C4.44 5.375 3.375 6.44 3.375 7.75C3.375 9.06 4.44 10.125 5.75 10.125H8.25C9.56 10.125 10.625 9.06 10.625 7.75C10.625 7.2 10.43 6.66501 10.08 6.24001C9.95 6.08001 9.97 5.84501 10.13 5.71001C10.29 5.57501 10.525 5.59999 10.66 5.75999C11.125 6.31999 11.38 7.025 11.38 7.75C11.375 9.475 9.975 10.875 8.25 10.875Z" fill="#717281"/>
</svg>
