<svg width="16" height="16" viewBox="0 0 16 16" fill="none" xmlns="http://www.w3.org/2000/svg">
<path fill-rule="evenodd" clip-rule="evenodd" d="M7.99992 0.833349C5.14647 0.833349 2.83328 3.14654 2.83328 6.00002V6.46942C2.83328 6.93402 2.69575 7.38828 2.43803 7.77482L1.67229 8.92342C0.783565 10.2565 1.46204 12.0685 3.00776 12.4901C3.5115 12.6275 4.0195 12.7437 4.53044 12.8387L4.53171 12.8421C5.04436 14.2101 6.41457 15.1667 7.99992 15.1667C9.58525 15.1667 10.9555 14.2101 11.4681 12.8421L11.4694 12.8387C11.9803 12.7437 12.4884 12.6275 12.9921 12.4901C14.5379 12.0685 15.2163 10.2565 14.3276 8.92342L13.5619 7.77482C13.3041 7.38828 13.1666 6.93402 13.1666 6.46942V6.00002C13.1666 3.14654 10.8534 0.833349 7.99992 0.833349ZM10.2509 13.0247C8.75558 13.2033 7.24418 13.2033 5.74891 13.0246C6.22288 13.7057 7.04725 14.1667 7.99992 14.1667C8.95252 14.1667 9.77692 13.7057 10.2509 13.0247ZM3.83328 6.00002C3.83328 3.69883 5.69876 1.83335 7.99992 1.83335C10.3011 1.83335 12.1666 3.69883 12.1666 6.00002V6.46942C12.1666 7.13148 12.3626 7.77868 12.7298 8.32955L13.4955 9.47815C14.0057 10.2433 13.6163 11.2833 12.729 11.5253C9.63285 12.3697 6.36705 12.3697 3.27088 11.5253C2.38366 11.2833 1.99423 10.2433 2.50435 9.47815L3.27008 8.32955C3.63731 7.77868 3.83328 7.13148 3.83328 6.46942V6.00002Z" fill="#43444C"/>
</svg>
