<svg width="16" height="16" viewBox="0 0 16 16" fill="none" xmlns="http://www.w3.org/2000/svg">
<path d="M0.5 8C0.5 3.85786 3.85786 0.5 8 0.5C12.1421 0.5 15.5 3.85786 15.5 8C15.5 12.1421 12.1421 15.5 8 15.5C3.85786 15.5 0.5 12.1421 0.5 8Z" fill="#41CB5D"/>
<path d="M0.5 8C0.5 3.85786 3.85786 0.5 8 0.5C12.1421 0.5 15.5 3.85786 15.5 8C15.5 12.1421 12.1421 15.5 8 15.5C3.85786 15.5 0.5 12.1421 0.5 8Z" stroke="#41CB5D"/>
<path d="M8 3C5.24 3 3 5.24 3 8C3 10.76 5.24 13 8 13C10.76 13 13 10.76 13 8C13 5.24 10.76 3 8 3ZM9.765 8.015C9.69 8.09 9.595 8.125 9.5 8.125C9.405 8.125 9.31 8.09 9.235 8.015L8.375 7.155V9.75C8.375 9.955 8.205 10.125 8 10.125C7.795 10.125 7.625 9.955 7.625 9.75V7.155L6.765 8.015C6.62 8.16 6.38 8.16 6.235 8.015C6.09 7.87 6.09 7.63 6.235 7.485L7.735 5.985C7.88 5.84 8.12 5.84 8.265 5.985L9.765 7.485C9.91 7.63 9.91 7.87 9.765 8.015Z" fill="white"/>
</svg>
