<svg width="54" height="55" viewBox="0 0 54 55" fill="none" xmlns="http://www.w3.org/2000/svg">
<path d="M1 26C1 11.6406 12.6406 0 27 0C41.3594 0 53 11.6406 53 26C53 40.3594 41.3594 52 27 52C12.6406 52 1 40.3594 1 26Z" fill="white"/>
<g filter="url(#filter0_d_255_86071)">
<path d="M1 26C1 11.6406 12.6406 0 27 0C41.3594 0 53 11.6406 53 26C53 40.3594 41.3594 52 27 52C12.6406 52 1 40.3594 1 26Z" fill="white" shape-rendering="crispEdges"/>
<path d="M21.1636 37.217C17.4388 37.217 14.4242 34.2211 14.4242 30.5368C14.4242 26.8446 17.4467 23.8565 21.1636 23.8565H27.4531H29.6627H33.3165C37.0333 23.8565 40.0558 26.8446 40.0558 30.5368C40.0558 33.4232 40.7897 35.0894 41.5315 36.0437C42.2654 36.9902 42.9993 37.2248 42.9993 37.2248H21.1636V37.217Z" fill="#7F51F2"/>
<path d="M29.23 14.783C32.9548 14.783 35.9694 17.7789 35.9694 21.4632C35.9694 25.1554 32.9469 28.1435 29.23 28.1435H26.5469H24.3373H20.6835C16.9666 28.1435 13.9442 25.1554 13.9442 21.4632C13.9442 18.5768 13.2103 16.9106 12.4685 15.9563C11.7346 15.0098 11.0007 14.7752 11.0007 14.7752H29.23V14.783Z" fill="#00FBAE"/>
</g>
<defs>
<filter id="filter0_d_255_86071" x="0" y="0" width="54" height="55" filterUnits="userSpaceOnUse" color-interpolation-filters="sRGB">
<feFlood flood-opacity="0" result="BackgroundImageFix"/>
<feColorMatrix in="SourceAlpha" type="matrix" values="0 0 0 0 0 0 0 0 0 0 0 0 0 0 0 0 0 0 127 0" result="hardAlpha"/>
<feOffset dy="2"/>
<feGaussianBlur stdDeviation="0.5"/>
<feComposite in2="hardAlpha" operator="out"/>
<feColorMatrix type="matrix" values="0 0 0 0 0.909804 0 0 0 0 0.960784 0 0 0 0 1 0 0 0 0.25 0"/>
<feBlend mode="normal" in2="BackgroundImageFix" result="effect1_dropShadow_255_86071"/>
<feBlend mode="normal" in="SourceGraphic" in2="effect1_dropShadow_255_86071" result="shape"/>
</filter>
</defs>
</svg>
